<svg width="143" height="32" viewBox="0 0 143 32" fill="none" xmlns="http://www.w3.org/2000/svg">
<rect width="82" height="32" rx="5" fill="#4F00C7"/>
<path d="M99.2582 7.96V25.408H99.2102L86.0822 10.624L86.1062 25H84.9542V7.6H85.0262L98.1542 22.504L98.1302 7.96H99.2582ZM103.201 20.248C103.201 19.352 103.417 18.528 103.849 17.776C104.297 17.008 104.905 16.408 105.673 15.976C106.441 15.528 107.289 15.304 108.217 15.304C109.145 15.304 109.993 15.528 110.761 15.976C111.529 16.408 112.129 17.008 112.561 17.776C112.993 18.528 113.209 19.352 113.209 20.248C113.209 21.16 112.985 21.992 112.537 22.744C112.105 23.496 111.505 24.096 110.737 24.544C109.985 24.976 109.137 25.192 108.193 25.192C107.249 25.192 106.393 24.984 105.625 24.568C104.873 24.136 104.281 23.544 103.849 22.792C103.417 22.04 103.201 21.192 103.201 20.248ZM104.329 20.272C104.329 20.992 104.497 21.656 104.833 22.264C105.185 22.872 105.657 23.352 106.249 23.704C106.841 24.056 107.489 24.232 108.193 24.232C108.897 24.232 109.545 24.056 110.137 23.704C110.729 23.352 111.193 22.872 111.529 22.264C111.881 21.656 112.057 20.992 112.057 20.272C112.057 19.552 111.881 18.888 111.529 18.28C111.193 17.656 110.729 17.168 110.137 16.816C109.545 16.464 108.897 16.288 108.193 16.288C107.473 16.288 106.817 16.48 106.225 16.864C105.633 17.232 105.169 17.72 104.833 18.328C104.497 18.936 104.329 19.584 104.329 20.272ZM118.646 11.488V15.736H121.55V16.648H118.646V25H117.494V16.648H115.502V15.736H117.494V11.488H118.646ZM128.467 24.208C129.475 24.208 130.387 23.864 131.203 23.176L131.779 23.992C131.315 24.36 130.787 24.656 130.195 24.88C129.619 25.088 129.035 25.192 128.443 25.192C127.483 25.192 126.619 24.976 125.851 24.544C125.099 24.112 124.507 23.528 124.075 22.792C123.659 22.04 123.451 21.2 123.451 20.272C123.451 19.376 123.675 18.552 124.123 17.8C124.571 17.032 125.179 16.424 125.947 15.976C126.715 15.528 127.555 15.304 128.467 15.304C129.555 15.304 130.483 15.624 131.251 16.264C132.019 16.904 132.579 17.768 132.931 18.856L124.915 21.952C125.219 22.624 125.683 23.168 126.307 23.584C126.947 24 127.667 24.208 128.467 24.208ZM128.395 16.264C127.691 16.264 127.043 16.44 126.451 16.792C125.859 17.144 125.395 17.624 125.059 18.232C124.723 18.824 124.555 19.488 124.555 20.224C124.555 20.56 124.587 20.856 124.651 21.112L131.563 18.4C131.259 17.76 130.835 17.248 130.291 16.864C129.747 16.464 129.115 16.264 128.395 16.264ZM138.266 25.192C137.658 25.192 137.066 25.088 136.49 24.88C135.93 24.672 135.474 24.352 135.122 23.92L135.65 23.176C135.97 23.512 136.354 23.784 136.802 23.992C137.25 24.184 137.714 24.28 138.194 24.28C138.802 24.28 139.314 24.144 139.73 23.872C140.146 23.584 140.354 23.144 140.354 22.552C140.354 22.136 140.242 21.808 140.018 21.568C139.794 21.312 139.538 21.128 139.25 21.016C138.962 20.888 138.498 20.72 137.858 20.512C137.106 20.256 136.522 19.936 136.106 19.552C135.706 19.152 135.506 18.624 135.506 17.968C135.506 17.2 135.77 16.584 136.298 16.12C136.842 15.64 137.53 15.4 138.362 15.4C139.514 15.4 140.45 15.752 141.17 16.456L140.666 17.248C140.426 16.928 140.106 16.696 139.706 16.552C139.322 16.408 138.93 16.328 138.53 16.312C138.05 16.312 137.61 16.448 137.21 16.72C136.826 16.976 136.634 17.344 136.634 17.824C136.634 18.32 136.81 18.696 137.162 18.952C137.514 19.192 138.05 19.44 138.77 19.696C139.65 19.984 140.322 20.312 140.786 20.68C141.25 21.032 141.482 21.576 141.482 22.312C141.482 23.176 141.202 23.872 140.642 24.4C140.098 24.928 139.306 25.192 138.266 25.192Z" fill="black"/>
<path d="M20.5878 25H18.2598V17.392H9.16384V25H6.83584V7.648H9.16384V15.16H18.2598V7.648H20.5878V25ZM35.2338 15.064V25H33.0018V23.368C32.6498 23.832 32.1378 24.264 31.4658 24.664C30.7938 25.048 30.0338 25.24 29.1858 25.24C28.2418 25.24 27.3858 25.04 26.6178 24.64C25.8658 24.224 25.2658 23.624 24.8178 22.84C24.3858 22.056 24.1698 21.12 24.1698 20.032C24.1698 18.944 24.3938 18 24.8418 17.2C25.3058 16.384 25.9218 15.76 26.6898 15.328C27.4738 14.88 28.3378 14.656 29.2818 14.656C30.1298 14.656 30.8658 14.84 31.4898 15.208C32.1138 15.576 32.6178 16.056 33.0018 16.648L33.1698 15.064H35.2338ZM29.7858 23.392C30.6018 23.392 31.2978 23.168 31.8738 22.72C32.4658 22.256 32.8418 21.632 33.0018 20.848V18.88C32.8098 18.176 32.4098 17.608 31.8018 17.176C31.1938 16.728 30.4978 16.504 29.7138 16.504C29.1218 16.504 28.5698 16.648 28.0578 16.936C27.5618 17.224 27.1618 17.632 26.8578 18.16C26.5698 18.672 26.4258 19.256 26.4258 19.912C26.4258 20.552 26.5778 21.136 26.8818 21.664C27.1858 22.192 27.5938 22.616 28.1058 22.936C28.6178 23.24 29.1778 23.392 29.7858 23.392ZM51.8638 14.656C52.8238 14.656 53.5838 14.928 54.1438 15.472C54.7198 16.016 55.0238 16.736 55.0558 17.632V25H52.8238V18.448C52.7758 17.28 52.2478 16.664 51.2398 16.6C50.6638 16.6 50.1438 16.776 49.6798 17.128C49.2318 17.464 48.8798 17.912 48.6238 18.472C48.3678 19.032 48.2318 19.632 48.2158 20.272V25H45.9598V18.448C45.9118 17.28 45.3678 16.664 44.3278 16.6C43.7678 16.6 43.2558 16.776 42.7918 17.128C42.3438 17.464 41.9918 17.92 41.7358 18.496C41.4798 19.056 41.3518 19.656 41.3518 20.296V25H39.1198V15.064H41.1358L41.3038 16.936C41.6878 16.216 42.2078 15.656 42.8638 15.256C43.5358 14.856 44.2958 14.656 45.1438 14.656C45.9438 14.656 46.6158 14.848 47.1598 15.232C47.7038 15.6 48.0558 16.112 48.2158 16.768C48.6318 16.112 49.1598 15.6 49.7998 15.232C50.4398 14.848 51.1278 14.656 51.8638 14.656ZM61.0845 17.416C61.3405 16.872 61.7005 16.392 62.1645 15.976C62.6445 15.56 63.1485 15.24 63.6765 15.016C64.2045 14.792 64.6685 14.672 65.0685 14.656L64.9725 16.888C64.2525 16.856 63.5965 17 63.0045 17.32C62.4285 17.64 61.9725 18.088 61.6365 18.664C61.3165 19.224 61.1565 19.824 61.1565 20.464V25H58.9245V15.064H60.9165L61.0845 17.416ZM66.662 19.936C66.662 18.96 66.894 18.072 67.358 17.272C67.838 16.456 68.494 15.816 69.326 15.352C70.174 14.888 71.126 14.656 72.182 14.656C73.238 14.656 74.174 14.888 74.99 15.352C75.822 15.816 76.462 16.448 76.91 17.248C77.374 18.048 77.606 18.944 77.606 19.936C77.606 20.928 77.374 21.832 76.91 22.648C76.462 23.448 75.822 24.08 74.99 24.544C74.158 25.008 73.206 25.24 72.134 25.24C71.094 25.24 70.158 25.024 69.326 24.592C68.494 24.144 67.838 23.52 67.358 22.72C66.894 21.92 66.662 20.992 66.662 19.936ZM68.918 19.96C68.918 20.584 69.054 21.16 69.326 21.688C69.614 22.216 69.998 22.632 70.478 22.936C70.974 23.24 71.518 23.392 72.11 23.392C73.038 23.392 73.806 23.064 74.414 22.408C75.022 21.752 75.326 20.936 75.326 19.96C75.326 18.984 75.022 18.168 74.414 17.512C73.806 16.84 73.038 16.504 72.11 16.504C71.502 16.504 70.958 16.664 70.478 16.984C69.998 17.288 69.614 17.704 69.326 18.232C69.054 18.76 68.918 19.336 68.918 19.96Z" fill="#F0F6FF"/>
</svg>
