<svg width="890" height="180" viewBox="0 0 890 180" fill="none" xmlns="http://www.w3.org/2000/svg">
<rect width="490" height="180" rx="19" fill="#4F00C7"/>
<path d="M113.799 143H99.249V95.45H42.399V143H27.849V34.55H42.399V81.5H99.249V34.55H113.799V143ZM205.337 80.9V143H191.387V132.8C189.187 135.7 185.987 138.4 181.787 140.9C177.587 143.3 172.837 144.5 167.537 144.5C161.637 144.5 156.287 143.25 151.487 140.75C146.787 138.15 143.037 134.4 140.237 129.5C137.537 124.6 136.187 118.75 136.187 111.95C136.187 105.15 137.587 99.25 140.387 94.25C143.287 89.15 147.137 85.25 151.937 82.55C156.837 79.75 162.237 78.35 168.137 78.35C173.437 78.35 178.037 79.5 181.937 81.8C185.837 84.1 188.987 87.1 191.387 90.8L192.437 80.9H205.337ZM171.287 132.95C176.387 132.95 180.737 131.55 184.337 128.75C188.037 125.85 190.387 121.95 191.387 117.05V104.75C190.187 100.35 187.687 96.8 183.887 94.1C180.087 91.3 175.737 89.9 170.837 89.9C167.137 89.9 163.687 90.8 160.487 92.6C157.387 94.4 154.887 96.95 152.987 100.25C151.187 103.45 150.287 107.1 150.287 111.2C150.287 115.2 151.237 118.85 153.137 122.15C155.037 125.45 157.587 128.1 160.787 130.1C163.987 132 167.487 132.95 171.287 132.95ZM309.274 78.35C315.274 78.35 320.024 80.05 323.524 83.45C327.124 86.85 329.024 91.35 329.224 96.95V143H315.274V102.05C314.974 94.75 311.674 90.9 305.374 90.5C301.774 90.5 298.524 91.6 295.624 93.8C292.824 95.9 290.624 98.7 289.024 102.2C287.424 105.7 286.574 109.45 286.474 113.45V143H272.374V102.05C272.074 94.75 268.674 90.9 262.174 90.5C258.674 90.5 255.474 91.6 252.574 93.8C249.774 95.9 247.574 98.75 245.974 102.35C244.374 105.85 243.574 109.6 243.574 113.6V143H229.624V80.9H242.224L243.274 92.6C245.674 88.1 248.924 84.6 253.024 82.1C257.224 79.6 261.974 78.35 267.274 78.35C272.274 78.35 276.474 79.55 279.874 81.95C283.274 84.25 285.474 87.45 286.474 91.55C289.074 87.45 292.374 84.25 296.374 81.95C300.374 79.55 304.674 78.35 309.274 78.35ZM366.903 95.6C368.503 92.2 370.753 89.2 373.653 86.6C376.653 84 379.803 82 383.103 80.6C386.403 79.2 389.303 78.45 391.803 78.35L391.203 92.3C386.703 92.1 382.603 93 378.903 95C375.303 97 372.453 99.8 370.353 103.4C368.353 106.9 367.353 110.65 367.353 114.65V143H353.403V80.9H365.853L366.903 95.6ZM401.763 111.35C401.763 105.25 403.213 99.7 406.113 94.7C409.113 89.6 413.213 85.6 418.413 82.7C423.713 79.8 429.663 78.35 436.263 78.35C442.863 78.35 448.713 79.8 453.813 82.7C459.013 85.6 463.013 89.55 465.813 94.55C468.713 99.55 470.163 105.15 470.163 111.35C470.163 117.55 468.713 123.2 465.813 128.3C463.013 133.3 459.013 137.25 453.813 140.15C448.613 143.05 442.663 144.5 435.963 144.5C429.463 144.5 423.613 143.15 418.413 140.45C413.213 137.65 409.113 133.75 406.113 128.75C403.213 123.75 401.763 117.95 401.763 111.35ZM415.863 111.5C415.863 115.4 416.713 119 418.413 122.3C420.213 125.6 422.613 128.2 425.613 130.1C428.713 132 432.113 132.95 435.813 132.95C441.613 132.95 446.413 130.9 450.213 126.8C454.013 122.7 455.913 117.6 455.913 111.5C455.913 105.4 454.013 100.3 450.213 96.2C446.413 92 441.613 89.9 435.813 89.9C432.013 89.9 428.613 90.9 425.613 92.9C422.613 94.8 420.213 97.4 418.413 100.7C416.713 104 415.863 107.6 415.863 111.5Z" fill="white"/>
<path d="M599.283 34.55V146.6H598.833L519.183 65.75L519.483 143H504.783V31.25H505.533L585.033 113L584.733 34.55H599.283ZM621.616 111.35C621.616 105.25 623.066 99.7 625.966 94.7C628.966 89.6 633.066 85.6 638.266 82.7C643.566 79.8 649.516 78.35 656.116 78.35C662.716 78.35 668.566 79.8 673.666 82.7C678.866 85.6 682.866 89.55 685.666 94.55C688.566 99.55 690.016 105.15 690.016 111.35C690.016 117.55 688.566 123.2 685.666 128.3C682.866 133.3 678.866 137.25 673.666 140.15C668.466 143.05 662.516 144.5 655.816 144.5C649.316 144.5 643.466 143.15 638.266 140.45C633.066 137.65 628.966 133.75 625.966 128.75C623.066 123.75 621.616 117.95 621.616 111.35ZM635.716 111.5C635.716 115.4 636.566 119 638.266 122.3C640.066 125.6 642.466 128.2 645.466 130.1C648.566 132 651.966 132.95 655.666 132.95C661.466 132.95 666.266 130.9 670.066 126.8C673.866 122.7 675.766 117.6 675.766 111.5C675.766 105.4 673.866 100.3 670.066 96.2C666.266 92 661.466 89.9 655.666 89.9C651.866 89.9 648.466 90.9 645.466 92.9C642.466 94.8 640.066 97.4 638.266 100.7C636.566 104 635.716 107.6 635.716 111.5ZM728.854 53.6V81.05H745.804V92.15H728.854V143H714.754V92.15H703.354V81.05H714.754V53.6H728.854ZM791.907 132.5C797.107 132.5 802.157 130.7 807.057 127.1L813.507 137.45C810.207 139.65 806.607 141.4 802.707 142.7C798.907 143.9 795.207 144.5 791.607 144.5C784.707 144.5 778.657 143.1 773.457 140.3C768.357 137.4 764.407 133.45 761.607 128.45C758.807 123.45 757.407 117.8 757.407 111.5C757.407 105.4 758.907 99.85 761.907 94.85C765.007 89.75 769.207 85.75 774.507 82.85C779.807 79.85 785.607 78.35 791.907 78.35C800.007 78.35 806.757 80.75 812.157 85.55C817.657 90.25 821.407 96.85 823.407 105.35L774.207 122.6C776.007 125.7 778.407 128.15 781.407 129.95C784.507 131.65 788.007 132.5 791.907 132.5ZM790.857 89.45C785.157 89.45 780.457 91.45 776.757 95.45C773.057 99.45 771.207 104.55 771.207 110.75C771.207 112.25 771.257 113.4 771.357 114.2L807.507 100.85C806.007 97.45 803.857 94.7 801.057 92.6C798.357 90.5 794.957 89.45 790.857 89.45ZM858.287 144.35C853.687 144.35 849.287 143.55 845.087 141.95C840.987 140.35 837.637 138 835.037 134.9L841.037 126.8C843.537 129.2 846.137 131.05 848.837 132.35C851.637 133.65 854.387 134.3 857.087 134.3C860.387 134.3 863.087 133.65 865.187 132.35C867.287 131.05 868.337 129.05 868.337 126.35C868.337 124.25 867.687 122.55 866.387 121.25C865.087 119.95 863.587 119 861.887 118.4C860.287 117.8 857.537 116.9 853.637 115.7C843.037 112.3 837.737 106.25 837.737 97.55C837.737 92.35 839.637 87.9 843.437 84.2C847.337 80.5 852.737 78.65 859.637 78.65C864.037 78.65 867.937 79.2 871.337 80.3C874.737 81.4 877.887 83.15 880.787 85.55L875.237 94.1C873.637 92.4 871.587 91.05 869.087 90.05C866.687 89.05 864.387 88.5 862.187 88.4C859.387 88.4 856.987 89.1 854.987 90.5C852.987 91.8 851.987 93.6 851.987 95.9C851.987 97.8 852.637 99.4 853.937 100.7C855.237 101.9 856.587 102.8 857.987 103.4C859.387 103.9 862.137 104.8 866.237 106.1C871.337 107.8 875.287 110 878.087 112.7C880.987 115.4 882.437 119.05 882.437 123.65C882.437 129.65 880.337 134.6 876.137 138.5C871.937 142.4 865.987 144.35 858.287 144.35Z" fill="black"/>
</svg>
